<svg width="16" height="16" viewBox="0 0 16 16" fill="none" xmlns="http://www.w3.org/2000/svg">
<path d="M6.66536 2.66602L5.33203 3.99935" stroke="#191919" stroke-width="1.66667" stroke-linecap="round" stroke-linejoin="round"/>
<path d="M11.332 12.666V13.9993" stroke="#191919" stroke-width="1.33" stroke-linecap="round" stroke-linejoin="round"/>
<path d="M1.33203 8H14.6654" stroke="#191919" stroke-width="1.33" stroke-linecap="round" stroke-linejoin="round"/>
<path d="M4.66797 12.666V13.9993" stroke="#191919" stroke-width="1.33" stroke-linecap="round" stroke-linejoin="round"/>
<path d="M6.0013 3.33385L5.08197 2.41452C4.88918 2.22083 4.64439 2.08716 4.37722 2.02968C4.11005 1.9722 3.83195 1.99337 3.57656 2.09063C3.32118 2.18789 3.09944 2.35707 2.93819 2.57771C2.77694 2.79835 2.68308 3.06099 2.66797 3.33385V11.3339C2.66797 11.6875 2.80844 12.0266 3.05849 12.2767C3.30854 12.5267 3.64768 12.6672 4.0013 12.6672H12.0013C12.3549 12.6672 12.6941 12.5267 12.9441 12.2767C13.1942 12.0266 13.3346 11.6875 13.3346 11.3339V8.00052" stroke="#191919" stroke-width="1.33" stroke-linecap="round" stroke-linejoin="round"/>
</svg>
