<svg width="16" height="16" viewBox="0 0 16 16" fill="none" xmlns="http://www.w3.org/2000/svg">
<g clip-path="url(#clip0_15990_679)">
<path d="M9.33198 2.6665C9.57251 2.6665 9.80856 2.73156 10.0151 2.85479C10.2217 2.97803 10.3911 3.15484 10.5053 3.3665L10.8293 3.9665C10.9436 4.17817 11.1129 4.35498 11.3195 4.47821C11.5261 4.60145 11.7621 4.66651 12.0027 4.6665H13.334C13.6876 4.6665 14.0267 4.80698 14.2768 5.05703C14.5268 5.30708 14.6673 5.64622 14.6673 5.99984V11.9998C14.6673 12.3535 14.5268 12.6926 14.2768 12.9426C14.0267 13.1927 13.6876 13.3332 13.334 13.3332H2.66732C2.3137 13.3332 1.97456 13.1927 1.72451 12.9426C1.47446 12.6926 1.33398 12.3535 1.33398 11.9998V5.99984C1.33398 5.64622 1.47446 5.30708 1.72451 5.05703C1.97456 4.80698 2.3137 4.6665 2.66732 4.6665H3.99865C4.23893 4.66652 4.47475 4.6016 4.68117 4.47861C4.88759 4.35563 5.05694 4.17915 5.17132 3.96784L5.49732 3.36517C5.61169 3.15386 5.78104 2.97738 5.98746 2.85439C6.19388 2.73141 6.4297 2.66649 6.66998 2.6665H9.33198Z" stroke="white" stroke-width="1.33333" stroke-linecap="round" stroke-linejoin="round"/>
<path d="M8 10.6666C9.10457 10.6666 10 9.7712 10 8.66663C10 7.56206 9.10457 6.66663 8 6.66663C6.89543 6.66663 6 7.56206 6 8.66663C6 9.7712 6.89543 10.6666 8 10.6666Z" stroke="white" stroke-width="1.33333" stroke-linecap="round" stroke-linejoin="round"/>
</g>
<defs>
<clipPath id="clip0_15990_679">
<rect width="16" height="16" fill="white"/>
</clipPath>
</defs>
</svg>
