<svg width="16" height="16" viewBox="0 0 16 16" fill="none" xmlns="http://www.w3.org/2000/svg">
<path d="M3.9974 14.6668C3.64377 14.6668 3.30464 14.5264 3.05459 14.2763C2.80454 14.0263 2.66406 13.6871 2.66406 13.3335V2.66683C2.66406 2.31321 2.80454 1.97407 3.05459 1.72402C3.30464 1.47397 3.64377 1.3335 3.9974 1.3335H9.33073C9.54177 1.33316 9.75078 1.37457 9.94575 1.45534C10.1407 1.53612 10.3178 1.65467 10.4667 1.80416L12.8587 4.19617C13.0086 4.34517 13.1275 4.5224 13.2085 4.71761C13.2895 4.91282 13.3311 5.12214 13.3307 5.3335V13.3335C13.3307 13.6871 13.1903 14.0263 12.9402 14.2763C12.6902 14.5264 12.351 14.6668 11.9974 14.6668H3.9974Z" stroke="#0B3C6D" stroke-width="1.33333" stroke-linecap="round" stroke-linejoin="round"/>
<path d="M9.33594 1.3335V4.66683C9.33594 4.84364 9.40618 5.01321 9.5312 5.13823C9.65622 5.26326 9.82579 5.3335 10.0026 5.3335H13.3359" stroke="#0B3C6D" stroke-width="1.33333" stroke-linecap="round" stroke-linejoin="round"/>
<path d="M6.66927 6H5.33594" stroke="#0B3C6D" stroke-width="1.33333" stroke-linecap="round" stroke-linejoin="round"/>
<path d="M10.6693 8.6665H5.33594" stroke="#0B3C6D" stroke-width="1.33333" stroke-linecap="round" stroke-linejoin="round"/>
<path d="M10.6693 11.3335H5.33594" stroke="#0B3C6D" stroke-width="1.33333" stroke-linecap="round" stroke-linejoin="round"/>
</svg>
