<svg width="24" height="24" viewBox="0 0 24 24" fill="none" xmlns="http://www.w3.org/2000/svg">
<g clip-path="url(#clip0_15573_13632)">
<path d="M3.71256 3.0484C3.62262 3.0045 3.52154 2.98871 3.4225 3.0031C3.32345 3.01749 3.23104 3.06139 3.15732 3.12907C3.08359 3.19675 3.03196 3.28508 3.00918 3.38253C2.98639 3.47999 2.99349 3.58204 3.02956 3.6754L5.87256 11.3024C6.04023 11.7526 6.04023 12.2482 5.87256 12.6984L3.03056 20.3254C2.99467 20.4186 2.98766 20.5205 3.01044 20.6178C3.03322 20.7151 3.08473 20.8033 3.15828 20.8709C3.23183 20.9385 3.32402 20.9824 3.42287 20.997C3.52172 21.0115 3.62265 20.996 3.71256 20.9524L21.7126 12.4524C21.7982 12.4119 21.8705 12.3479 21.9212 12.2679C21.9719 12.1879 21.9988 12.0951 21.9988 12.0004C21.9988 11.9057 21.9719 11.8129 21.9212 11.7329C21.8705 11.6529 21.7982 11.5889 21.7126 11.5484L3.71256 3.0484Z" stroke="#D1D5DC" stroke-width="2" stroke-linecap="round" stroke-linejoin="round"/>
<path d="M6 12.0004H22" stroke="#D1D5DC" stroke-width="2" stroke-linecap="round" stroke-linejoin="round"/>
</g>
<defs>
<clipPath id="clip0_15573_13632">
<rect width="24" height="24" fill="white"/>
</clipPath>
</defs>
</svg>
