<svg width="18" height="18" viewBox="0 0 18 18" fill="none" xmlns="http://www.w3.org/2000/svg">
<g clip-path="url(#clip0_16058_3113)">
<path d="M9 7.5H9.0075" stroke="#6B7280" stroke-width="2" stroke-linecap="round" stroke-linejoin="round"/>
<path d="M9 10.5H9.0075" stroke="#6B7280" stroke-width="2" stroke-linecap="round" stroke-linejoin="round"/>
<path d="M9 4.5H9.0075" stroke="#6B7280" stroke-width="2" stroke-linecap="round" stroke-linejoin="round"/>
<path d="M12 7.5H12.0075" stroke="#6B7280" stroke-width="2" stroke-linecap="round" stroke-linejoin="round"/>
<path d="M12 10.5H12.0075" stroke="#6B7280" stroke-width="2" stroke-linecap="round" stroke-linejoin="round"/>
<path d="M12 4.5H12.0075" stroke="#6B7280" stroke-width="2" stroke-linecap="round" stroke-linejoin="round"/>
<path d="M6 7.5H6.0075" stroke="#6B7280" stroke-width="2" stroke-linecap="round" stroke-linejoin="round"/>
<path d="M6 10.5H6.0075" stroke="#6B7280" stroke-width="2" stroke-linecap="round" stroke-linejoin="round"/>
<path d="M6 4.5H6.0075" stroke="#6B7280" stroke-width="2" stroke-linecap="round" stroke-linejoin="round"/>
<path d="M6.75 16.5V14.25C6.75 14.0511 6.82902 13.8603 6.96967 13.7197C7.11032 13.579 7.30109 13.5 7.5 13.5H10.5C10.6989 13.5 10.8897 13.579 11.0303 13.7197C11.171 13.8603 11.25 14.0511 11.25 14.25V16.5" stroke="#6B7280" stroke-width="1.5" stroke-linecap="round" stroke-linejoin="round"/>
<path d="M13.5 1.5H4.5C3.67157 1.5 3 2.17157 3 3V15C3 15.8284 3.67157 16.5 4.5 16.5H13.5C14.3284 16.5 15 15.8284 15 15V3C15 2.17157 14.3284 1.5 13.5 1.5Z" stroke="#6B7280" stroke-width="1.5" stroke-linecap="round" stroke-linejoin="round"/>
</g>
<defs>
<clipPath id="clip0_16058_3113">
<rect width="18" height="18" fill="white"/>
</clipPath>
</defs>
</svg>
