<svg width="28" height="28" viewBox="0 0 28 28" fill="none" xmlns="http://www.w3.org/2000/svg">
<path d="M20.0352 18.2695H16.4141C16.2109 18.2695 16.0391 18.1992 15.8984 18.0586C15.7578 17.9102 15.6875 17.7383 15.6875 17.543V13.9219C15.6875 13.7266 15.7578 13.5586 15.8984 13.418C16.0391 13.2695 16.2109 13.1953 16.4141 13.1953H20.0352C20.2305 13.1953 20.3984 13.2656 20.5391 13.4062C20.6875 13.5469 20.7617 13.7188 20.7617 13.9219V17.543C20.7617 17.7383 20.6914 17.9102 20.5508 18.0586C20.4102 18.1992 20.2383 18.2695 20.0352 18.2695ZM15.9219 1.30078L26.7031 11.918V11.9297C27.0625 12.2734 27.3008 12.6797 27.418 13.1484C27.543 13.6094 27.5469 14.0742 27.4297 14.543C27.3125 15.0039 27.0703 15.4102 26.7031 15.7617C26.2266 16.2383 25.6523 16.4961 24.9805 16.5352V21.7383C25.707 21.9102 26.3086 22.2891 26.7852 22.875C27.2695 23.4688 27.5117 24.1602 27.5117 24.9492V26.707H0.488281V24.9492C0.488281 24.168 0.726562 23.4805 1.20312 22.8867C1.6875 22.293 2.29297 21.9062 3.01953 21.7266V16.5703C2.34766 16.5234 1.77344 16.2656 1.29688 15.7969C1.03125 15.5312 0.828125 15.2305 0.6875 14.8945C0.554688 14.5586 0.488281 14.2188 0.488281 13.875C0.488281 13.5234 0.554688 13.1836 0.6875 12.8555C0.828125 12.5195 1.03125 12.2188 1.29688 11.9531L3.86328 9.42188V3.50391C3.86328 2.88672 4.07812 2.37891 4.50781 1.98047C4.94531 1.57422 5.44922 1.37109 6.01953 1.37109H8.48047C8.94922 1.37109 9.37109 1.51172 9.74609 1.79297C10.1289 2.06641 10.3906 2.42188 10.5312 2.85938L12.1016 1.3125C12.3672 1.04687 12.6641 0.851563 12.9922 0.726562C13.3281 0.59375 13.668 0.527344 14.0117 0.527344C14.7617 0.527344 15.3984 0.785156 15.9219 1.30078ZM4.70703 13.8281V23.332H6.40625C6.40625 23.0977 6.48828 22.8984 6.65234 22.7344C6.81641 22.5703 7.01562 22.4883 7.25 22.4883V14.3672C7.25 14.0547 7.35938 13.7852 7.57812 13.5586C7.80469 13.332 8.07812 13.2188 8.39844 13.2188H12.8633C13.1758 13.2188 13.4453 13.332 13.6719 13.5586C13.8984 13.7852 14.0117 14.0547 14.0117 14.3672V22.4883C14.2305 22.4961 14.418 22.582 14.5742 22.7461C14.7305 22.9102 14.8086 23.1055 14.8086 23.332H23.293V13.793L14.0234 4.65234L4.70703 13.8281ZM8.9375 6.79688V3.50391C8.9375 3.37891 8.89062 3.27344 8.79688 3.1875C8.71094 3.10156 8.60547 3.05859 8.48047 3.05859H6.01953C5.88672 3.05859 5.77344 3.10156 5.67969 3.1875C5.59375 3.27344 5.55078 3.37891 5.55078 3.50391V10.125L8.9375 6.79688ZM13.1562 17.8359C13.1562 17.7266 13.1133 17.6289 13.0273 17.543C12.9492 17.457 12.8516 17.4141 12.7344 17.4141C12.6172 17.4141 12.5156 17.457 12.4297 17.543C12.3516 17.6289 12.3125 17.7266 12.3125 17.8359C12.3125 17.9531 12.3516 18.0547 12.4297 18.1406C12.5156 18.2266 12.6172 18.2695 12.7344 18.2695C12.8516 18.2695 12.9492 18.2266 13.0273 18.1406C13.1133 18.0547 13.1562 17.9531 13.1562 17.8359Z" fill="white"/>
</svg>
