<svg width="28" height="28" viewBox="0 0 28 28" fill="none" xmlns="http://www.w3.org/2000/svg">
<path d="M18.9961 0C20.543 0.0078125 21.9688 0.429688 23.2734 1.26562C24.3594 1.96094 25.2383 2.85156 25.9102 3.9375C26.5898 5.03125 27 6.21484 27.1406 7.48828C27.1719 7.74609 27.1875 8.00391 27.1875 8.26172V8.60156C27.1719 9.49219 27.0156 10.3672 26.7188 11.2266C26.3047 12.4375 25.6445 13.5 24.7383 14.4141C23.957 15.2109 23.0508 15.8242 22.0195 16.2539C20.9883 16.6914 19.9141 16.9062 18.7969 16.8984C18.1094 16.8984 17.4336 16.8164 16.7695 16.6523L14.4727 18.9492C13.9727 19.457 13.3672 19.7109 12.6562 19.7109C12.5078 19.7109 12.3633 19.6992 12.2227 19.6758C12.1367 20.2617 11.8906 20.7617 11.4844 21.1758C11.0703 21.5977 10.5742 21.8555 9.99609 21.9492C10.0586 22.3477 10.0273 22.7344 9.90234 23.1094C9.77734 23.4922 9.57422 23.8242 9.29297 24.1055C9.08203 24.3164 8.84766 24.5469 8.58984 24.7969C8.33984 25.0547 8.12109 25.2734 7.93359 25.4531C7.75391 25.6406 7.66016 25.7383 7.65234 25.7461C7.15234 26.2383 6.57031 26.5938 5.90625 26.8125C5.23438 27.0312 4.55078 27.082 3.85547 26.9648C3.16016 26.8555 2.52734 26.5938 1.95703 26.1797C1.38672 25.7656 0.945312 25.2422 0.632812 24.6094C0.210938 23.75 0.078125 22.8477 0.234375 21.9023C0.398438 20.957 0.824219 20.1484 1.51172 19.4766L10.5703 10.4062C10.2031 9.01562 10.207 7.625 10.582 6.23438C10.957 4.84375 11.6562 3.64453 12.6797 2.63672C13.5078 1.80078 14.4609 1.15625 15.5391 0.703125C16.6172 0.242188 17.7422 0.0078125 18.9141 0H18.9961ZM18.9258 1.6875C17.9727 1.69531 17.0625 1.88281 16.1953 2.25C15.3203 2.625 14.5508 3.14844 13.8867 3.82031C13.043 4.64844 12.4766 5.63672 12.1875 6.78516C11.8984 7.92578 11.9258 9.0625 12.2695 10.1953C12.3398 10.4219 12.418 10.6445 12.5039 10.8633L2.70703 20.6719C2.27734 21.0859 2.01172 21.582 1.91016 22.1602C1.80078 22.7461 1.875 23.3086 2.13281 23.8477C2.32812 24.2305 2.60156 24.5508 2.95312 24.8086C3.30469 25.0664 3.69141 25.2305 4.11328 25.3008C4.54297 25.3711 4.96484 25.3398 5.37891 25.207C5.79297 25.0742 6.15625 24.8555 6.46875 24.5508C6.46875 24.5508 6.5625 24.457 6.75 24.2695C6.9375 24.082 7.16016 23.8594 7.41797 23.6016C7.67578 23.3438 7.91016 23.1133 8.12109 22.9102C8.22266 22.8008 8.28906 22.6758 8.32031 22.5352C8.35156 22.4023 8.34766 22.2656 8.30859 22.125C8.19922 21.7578 8.20703 21.3906 8.33203 21.0234C8.41016 20.8359 8.53125 20.6758 8.69531 20.543C8.85156 20.4102 9.03516 20.3281 9.24609 20.2969H9.25781C9.3125 20.2969 9.38281 20.2969 9.46875 20.2969C9.61719 20.3125 9.76172 20.293 9.90234 20.2383C10.043 20.1914 10.1641 20.1133 10.2656 20.0039C10.3672 19.9023 10.4453 19.7891 10.5 19.6641C10.5469 19.5312 10.5703 19.3945 10.5703 19.2539C10.5703 19.0664 10.6094 18.8867 10.6875 18.7148C10.7734 18.5508 10.8867 18.4062 11.0273 18.2812C11.3242 18.0469 11.6602 17.9336 12.0352 17.9414C12.1758 17.9414 12.3203 17.9609 12.4688 18C12.5312 18.0156 12.5938 18.0234 12.6562 18.0234C12.9062 18.0156 13.1172 17.9219 13.2891 17.7422C13.3672 17.6641 13.5703 17.4609 13.8984 17.1328C14.2266 16.8047 14.6055 16.4258 15.0352 15.9961C15.4727 15.5586 15.8945 15.1328 16.3008 14.7188C17.5508 15.2266 18.832 15.3438 20.1445 15.0703C21.4648 14.7969 22.5977 14.1797 23.543 13.2188C24.2695 12.4922 24.8008 11.6406 25.1367 10.6641C25.4727 9.69531 25.582 8.69922 25.4648 7.67578C25.3477 6.65234 25.0195 5.70313 24.4805 4.82812C23.9336 3.95312 23.2266 3.24219 22.3594 2.69531C21.3125 2.01562 20.168 1.67969 18.9258 1.6875ZM21.4453 7.60547H21.4336C21.2305 7.60547 21.0312 7.56641 20.8359 7.48828C20.6484 7.41016 20.4805 7.29688 20.332 7.14844C20.0273 6.83594 19.875 6.46484 19.875 6.03516C19.875 5.59766 20.0273 5.22656 20.332 4.92188C20.4805 4.77344 20.6484 4.66016 20.8359 4.58203C21.0312 4.50391 21.2305 4.46484 21.4336 4.46484C21.6445 4.46484 21.8438 4.50391 22.0312 4.58203C22.2266 4.66016 22.3945 4.77344 22.5352 4.92188C22.8398 5.22656 22.9922 5.59766 22.9922 6.03516C22.9922 6.46484 22.8398 6.83594 22.5352 7.14844C22.3945 7.29688 22.2305 7.41016 22.043 7.48828C21.8477 7.56641 21.6484 7.60547 21.4453 7.60547Z" fill="#6B7280"/>
</svg>
