<svg width="20" height="20" viewBox="0 0 20 20" fill="none" xmlns="http://www.w3.org/2000/svg">
<path d="M16.6566 8.32779C16.6566 12.4859 12.0438 16.8164 10.4948 18.1538C10.3505 18.2623 10.1748 18.321 9.9943 18.321C9.81375 18.321 9.6381 18.2623 9.49379 18.1538C7.94482 16.8164 3.33203 12.4859 3.33203 8.32779C3.33203 6.56085 4.03395 4.86628 5.28336 3.61686C6.53278 2.36744 8.22735 1.66553 9.9943 1.66553C11.7612 1.66553 13.4558 2.36744 14.7052 3.61686C15.9546 4.86628 16.6566 6.56085 16.6566 8.32779Z" stroke="#6B7280" stroke-width="1.66557" stroke-linecap="round" stroke-linejoin="round"/>
<path d="M9.99249 10.8263C11.3723 10.8263 12.4908 9.70774 12.4908 8.32794C12.4908 6.94814 11.3723 5.82959 9.99249 5.82959C8.61269 5.82959 7.49414 6.94814 7.49414 8.32794C7.49414 9.70774 8.61269 10.8263 9.99249 10.8263Z" stroke="#6B7280" stroke-width="1.66557" stroke-linecap="round" stroke-linejoin="round"/>
</svg>
