<svg width="20" height="20" viewBox="0 0 20 20" fill="none" xmlns="http://www.w3.org/2000/svg">
<path d="M15.8245 8.79175H4.16557C3.2457 8.79175 2.5 9.53745 2.5 10.4573V16.2868C2.5 17.2067 3.2457 17.9524 4.16557 17.9524H15.8245C16.7444 17.9524 17.4901 17.2067 17.4901 16.2868V10.4573C17.4901 9.53745 16.7444 8.79175 15.8245 8.79175Z" stroke="#8C8C8C" stroke-width="1.66557" stroke-linecap="round" stroke-linejoin="round"/>
<path d="M5.82812 9.16058V5.82944C5.82813 4.7251 6.26682 3.666 7.04771 2.88511C7.82859 2.10422 8.8877 1.66553 9.99204 1.66553C11.0964 1.66553 12.1555 2.10422 12.9364 2.88511C13.7173 3.666 14.156 4.7251 14.156 5.82944V9.16058" stroke="#8C8C8C" stroke-width="1.66557" stroke-linecap="round" stroke-linejoin="round"/>
</svg>
