<svg width="26" height="26" viewBox="0 0 26 26" fill="none" xmlns="http://www.w3.org/2000/svg">
<path d="M25 18.688C25 19.3582 24.7471 20.0009 24.2971 20.4748C23.847 20.9487 23.2365 21.2149 22.6 21.2149H6.7936C6.15713 21.215 5.54678 21.4813 5.0968 21.9553L2.4544 24.7373C2.33525 24.8628 2.18344 24.9482 2.01819 24.9828C1.85293 25.0174 1.68164 24.9996 1.52597 24.9317C1.3703 24.8638 1.23724 24.7489 1.14362 24.6014C1.05 24.4539 1.00002 24.2805 1 24.1031V3.52686C1 2.8567 1.25286 2.21398 1.70294 1.7401C2.15303 1.26622 2.76348 1 3.4 1H22.6C23.2365 1 23.847 1.26622 24.2971 1.7401C24.7471 2.21398 25 2.8567 25 3.52686V18.688Z" stroke="#14B8A6" stroke-width="2" stroke-linecap="round" stroke-linejoin="round"/>
</svg>
