<svg width="13" height="13" viewBox="0 0 13 13" fill="none" xmlns="http://www.w3.org/2000/svg">
<path d="M5.5625 11.375C5.65759 11.5397 5.79434 11.6764 5.95902 11.7715C6.12371 11.8666 6.31051 11.9166 6.50067 11.9166C6.69082 11.9166 6.87763 11.8666 7.04231 11.7715C7.20699 11.6764 7.34375 11.5397 7.43883 11.375" stroke="#0F3D8F" stroke-width="1.08333" stroke-linecap="round" stroke-linejoin="round"/>
<path d="M1.76652 8.3015C1.69576 8.37906 1.64906 8.47551 1.63211 8.57912C1.61516 8.68273 1.62868 8.78903 1.67103 8.88509C1.71338 8.98116 1.78274 9.06285 1.87066 9.12022C1.95858 9.17759 2.06128 9.20818 2.16627 9.20825H10.8329C10.9379 9.20829 11.0406 9.17782 11.1286 9.12056C11.2166 9.0633 11.286 8.9817 11.3285 8.8857C11.371 8.7897 11.3846 8.68342 11.3678 8.5798C11.351 8.47619 11.3044 8.37969 11.2338 8.30204C10.5134 7.55942 9.7496 6.77021 9.7496 4.33325C9.7496 3.4713 9.4072 2.64465 8.7977 2.03515C8.18821 1.42566 7.36156 1.08325 6.4996 1.08325C5.63765 1.08325 4.811 1.42566 4.20151 2.03515C3.59201 2.64465 3.2496 3.4713 3.2496 4.33325C3.2496 6.77021 2.48531 7.55942 1.76652 8.3015Z" stroke="#0F3D8F" stroke-width="1.08333" stroke-linecap="round" stroke-linejoin="round"/>
</svg>
