<svg width="13" height="13" viewBox="0 0 13 13" fill="none" xmlns="http://www.w3.org/2000/svg">
<g clip-path="url(#clip0_16219_2219)">
<path d="M5.5625 11.375C5.65759 11.5397 5.79434 11.6764 5.95902 11.7715C6.12371 11.8666 6.31051 11.9166 6.50067 11.9166C6.69082 11.9166 6.87763 11.8666 7.04231 11.7715C7.20699 11.6764 7.34375 11.5397 7.43883 11.375" stroke="#6B7280" stroke-width="1.08333" stroke-linecap="round" stroke-linejoin="round"/>
<path d="M9.20853 9.20835H2.16686C2.06189 9.20839 1.95916 9.17793 1.87118 9.12066C1.7832 9.0634 1.71376 8.9818 1.6713 8.8858C1.62883 8.7898 1.61518 8.68352 1.632 8.57991C1.64882 8.47629 1.69538 8.37979 1.76603 8.30215C2.48644 7.55952 3.25019 6.77031 3.25019 4.33335C3.25012 4.01366 3.29721 3.69571 3.38994 3.38977" stroke="#6B7280" stroke-width="1.08333" stroke-linecap="round" stroke-linejoin="round"/>
<path d="M1.08594 1.08325L11.9193 11.9166" stroke="#6B7280" stroke-width="1.08333" stroke-linecap="round" stroke-linejoin="round"/>
<path d="M4.69531 1.6304C5.1847 1.3036 5.75363 1.11581 6.3414 1.08707C6.92917 1.05833 7.51371 1.18971 8.03265 1.4672C8.55159 1.74468 8.98545 2.15786 9.28793 2.66264C9.59041 3.16741 9.75017 3.74485 9.75015 4.33332C9.75015 5.78878 10.1672 6.85369 10.6748 7.6104" stroke="#6B7280" stroke-width="1.08333" stroke-linecap="round" stroke-linejoin="round"/>
</g>
<defs>
<clipPath id="clip0_16219_2219">
<rect width="13" height="13" fill="white"/>
</clipPath>
</defs>
</svg>
