<svg width="21" height="18" viewBox="0 0 21 18" fill="none" xmlns="http://www.w3.org/2000/svg">
<path d="M17.5 16.5L16.1 15.1L17.2 14H9.8C9.6 14.6 9.24167 15.0833 8.725 15.45C8.20833 15.8167 7.63333 16 7 16C6.36667 16 5.79583 15.8167 5.2875 15.45C4.77917 15.0833 4.41667 14.6 4.2 14H3C2.16667 14 1.45833 13.7083 0.875 13.125C0.291667 12.5417 0 11.8333 0 11V5H6V2H0V0H13C13.55 0 14.0208 0.195833 14.4125 0.5875C14.8042 0.979167 15 1.45 15 2V12H17.15L16.1 10.95L17.5 9.5L21 13L17.5 16.5ZM8 5H13V2H8V5ZM7 14C7.28333 14 7.52083 13.9042 7.7125 13.7125C7.90417 13.5208 8 13.2833 8 13C8 12.7167 7.90417 12.4792 7.7125 12.2875C7.52083 12.0958 7.28333 12 7 12C6.71667 12 6.47917 12.0958 6.2875 12.2875C6.09583 12.4792 6 12.7167 6 13C6 13.2833 6.09583 13.5208 6.2875 13.7125C6.47917 13.9042 6.71667 14 7 14ZM4.2 12C4.41667 11.4 4.77917 10.9167 5.2875 10.55C5.79583 10.1833 6.36667 10 7 10C7.63333 10 8.20833 10.1833 8.725 10.55C9.24167 10.9167 9.6 11.4 9.8 12H13V7H2V11C2 11.2833 2.09583 11.5208 2.2875 11.7125C2.47917 11.9042 2.71667 12 3 12H4.2ZM4.2 7H3C2.71667 7 2.47917 7 2.2875 7C2.09583 7 2 7 2 7H13H9.8C9.6 7 9.24167 7 8.725 7C8.20833 7 7.63333 7 7 7C6.36667 7 5.79583 7 5.2875 7C4.77917 7 4.41667 7 4.2 7Z" fill="#6B7280"/>
</svg>
