<svg width="20" height="20" viewBox="0 0 20 20" fill="none" xmlns="http://www.w3.org/2000/svg">
<path d="M1.71612 10.2833C1.64671 10.0964 1.64671 9.89068 1.71612 9.70371C2.39209 8.06467 3.53951 6.66325 5.01291 5.67712C6.48632 4.69099 8.21936 4.16455 9.99232 4.16455C11.7653 4.16455 13.4983 4.69099 14.9717 5.67712C16.4451 6.66325 17.5925 8.06467 18.2685 9.70371C18.3379 9.89068 18.3379 10.0964 18.2685 10.2833C17.5925 11.9224 16.4451 13.3238 14.9717 14.3099C13.4983 15.2961 11.7653 15.8225 9.99232 15.8225C8.21936 15.8225 6.48632 15.2961 5.01291 14.3099C3.53951 13.3238 2.39209 11.9224 1.71612 10.2833Z" stroke="#8C8C8C" stroke-width="1.66557" stroke-linecap="round" stroke-linejoin="round"/>
<path d="M9.99054 12.4918C11.3703 12.4918 12.4889 11.3733 12.4889 9.99347C12.4889 8.61367 11.3703 7.49512 9.99054 7.49512C8.61074 7.49512 7.49219 8.61367 7.49219 9.99347C7.49219 11.3733 8.61074 12.4918 9.99054 12.4918Z" stroke="#8C8C8C" stroke-width="1.66557" stroke-linecap="round" stroke-linejoin="round"/>
</svg>
