<svg width="20" height="20" viewBox="0 0 20 20" fill="none" xmlns="http://www.w3.org/2000/svg">
<g clip-path="url(#clip0_15561_21798)">
<path d="M17.6462 5.67658C18.0868 5.2361 18.3344 4.63863 18.3345 4.01562C18.3346 3.39261 18.0871 2.79508 17.6467 2.35449C17.2062 1.9139 16.6087 1.66634 15.9857 1.66626C15.3627 1.66618 14.7652 1.9136 14.3246 2.35408L3.20291 13.4782C3.00943 13.6712 2.86634 13.9087 2.78625 14.1699L1.68541 17.7966C1.66388 17.8686 1.66225 17.9452 1.68071 18.0181C1.69916 18.091 1.73701 18.1576 1.79024 18.2107C1.84347 18.2639 1.9101 18.3016 1.98305 18.32C2.05599 18.3383 2.13255 18.3366 2.20458 18.3149L5.83208 17.2149C6.09306 17.1355 6.33056 16.9933 6.52375 16.8007L17.6462 5.67658Z" stroke="#6B7280" stroke-width="2" stroke-linecap="round" stroke-linejoin="round"/>
<path d="M12.5 4.16663L15.8333 7.49996" stroke="#6B7280" stroke-width="2" stroke-linecap="round" stroke-linejoin="round"/>
</g>
<defs>
<clipPath id="clip0_15561_21798">
<rect width="20" height="20" fill="white"/>
</clipPath>
</defs>
</svg>
