<svg width="20" height="20" viewBox="0 0 20 20" fill="none" xmlns="http://www.w3.org/2000/svg">
<g clip-path="url(#clip0_15532_4777)">
<path d="M18.3203 14.0463V16.5446C18.3212 16.7766 18.2737 17.0062 18.1808 17.2187C18.0879 17.4312 17.9516 17.6219 17.7807 17.7787C17.6098 17.9355 17.408 18.0549 17.1883 18.1292C16.9686 18.2035 16.7358 18.2311 16.5048 18.2102C13.9422 17.9318 11.4807 17.0561 9.31792 15.6536C7.30577 14.375 5.59982 12.669 4.32122 10.6569C2.91379 8.48431 2.03793 6.01077 1.76457 3.43664C1.74376 3.20635 1.77113 2.97425 1.84494 2.75511C1.91874 2.53598 2.03737 2.33461 2.19326 2.16383C2.34915 1.99306 2.5389 1.85661 2.75041 1.76318C2.96193 1.66975 3.19058 1.62139 3.42181 1.62117H5.92016C6.32432 1.6172 6.71613 1.76031 7.02257 2.02385C7.32901 2.28739 7.52916 2.65336 7.58573 3.05356C7.69118 3.85309 7.88674 4.63812 8.16868 5.39368C8.28072 5.69176 8.30497 6.0157 8.23855 6.32713C8.17213 6.63856 8.01783 6.92443 7.79392 7.15085L6.73629 8.20849C7.9218 10.2934 9.64808 12.0197 11.733 13.2052L12.7906 12.1476C13.017 11.9236 13.3029 11.7693 13.6143 11.7029C13.9258 11.6365 14.2497 11.6608 14.5478 11.7728C15.3034 12.0547 16.0884 12.2503 16.8879 12.3558C17.2925 12.4128 17.6619 12.6166 17.926 12.9283C18.1901 13.24 18.3304 13.6379 18.3203 14.0463Z" stroke="#0B3C6D" stroke-width="1.66557" stroke-linecap="round" stroke-linejoin="round"/>
</g>
<defs>
<clipPath id="clip0_15532_4777">
<rect width="19.9868" height="19.9868" fill="white"/>
</clipPath>
</defs>
</svg>
