<svg width="20" height="20" viewBox="0 0 20 20" fill="none" xmlns="http://www.w3.org/2000/svg">
<path d="M16.6654 11.1324C16.6654 15.299 13.7487 17.3824 10.282 18.5907C10.1005 18.6522 9.90331 18.6493 9.7237 18.5824C6.2487 17.3824 3.33203 15.299 3.33203 11.1324V5.29904C3.33203 5.07803 3.41983 4.86606 3.57611 4.70978C3.73239 4.5535 3.94435 4.46571 4.16536 4.46571C5.83203 4.46571 7.91536 3.46571 9.36536 2.19904C9.54191 2.04821 9.76649 1.96533 9.9987 1.96533C10.2309 1.96533 10.4555 2.04821 10.632 2.19904C12.0904 3.47404 14.1654 4.46571 15.832 4.46571C16.053 4.46571 16.265 4.5535 16.4213 4.70978C16.5776 4.86606 16.6654 5.07803 16.6654 5.29904V11.1324Z" stroke="#0B3C6D" stroke-width="1.66557" stroke-linecap="round" stroke-linejoin="round"/>
</svg>
