<svg width="20" height="20" viewBox="0 0 20 20" fill="none" xmlns="http://www.w3.org/2000/svg">
<path d="M10.1773 1.66602H9.81085C9.36912 1.66602 8.94547 1.84149 8.63312 2.15385C8.32076 2.4662 8.14529 2.88985 8.14529 3.33158V3.48148C8.14499 3.77356 8.06788 4.06043 7.92172 4.3133C7.77555 4.56617 7.56545 4.77616 7.3125 4.9222L6.95441 5.13039C6.70121 5.27658 6.41399 5.35354 6.12162 5.35354C5.82925 5.35354 5.54204 5.27658 5.28884 5.13039L5.16392 5.06377C4.78173 4.8433 4.32767 4.78349 3.90142 4.89747C3.47518 5.01145 3.11157 5.2899 2.89042 5.6717L2.70721 5.98816C2.48674 6.37035 2.42693 6.82441 2.54091 7.25066C2.65489 7.67691 2.93334 8.04051 3.31514 8.26166L3.44006 8.34494C3.69179 8.49027 3.90111 8.69894 4.0472 8.95023C4.1933 9.20152 4.27109 9.48666 4.27284 9.77732V10.202C4.27401 10.4955 4.1976 10.7841 4.05136 11.0386C3.90512 11.293 3.69423 11.5043 3.44006 11.6511L3.31514 11.726C2.93334 11.9472 2.65489 12.3108 2.54091 12.737C2.42693 13.1633 2.48674 13.6173 2.70721 13.9995L2.89042 14.316C3.11157 14.6978 3.47518 14.9762 3.90142 15.0902C4.32767 15.2042 4.78173 15.1444 5.16392 14.9239L5.28884 14.8573C5.54204 14.7111 5.82925 14.6342 6.12162 14.6342C6.41399 14.6342 6.70121 14.7111 6.95441 14.8573L7.3125 15.0655C7.56545 15.2115 7.77555 15.4215 7.92172 15.6744C8.06788 15.9273 8.14499 16.2141 8.14529 16.5062V16.6561C8.14529 17.0978 8.32076 17.5215 8.63312 17.8338C8.94547 18.1462 9.36912 18.3217 9.81085 18.3217H10.1773C10.619 18.3217 11.0427 18.1462 11.355 17.8338C11.6674 17.5215 11.8428 17.0978 11.8428 16.6561V16.5062C11.8431 16.2141 11.9202 15.9273 12.0664 15.6744C12.2126 15.4215 12.4227 15.2115 12.6756 15.0655L13.0337 14.8573C13.2869 14.7111 13.5741 14.6342 13.8665 14.6342C14.1589 14.6342 14.4461 14.7111 14.6993 14.8573L14.8242 14.9239C15.2064 15.1444 15.6605 15.2042 16.0867 15.0902C16.513 14.9762 16.8766 14.6978 17.0977 14.316L17.2809 13.9912C17.5014 13.609 17.5612 13.155 17.4472 12.7287C17.3332 12.3025 17.0548 11.9389 16.673 11.7177L16.5481 11.6511C16.2939 11.5043 16.083 11.293 15.9368 11.0386C15.7905 10.7841 15.7141 10.4955 15.7153 10.202V9.78565C15.7141 9.49216 15.7905 9.20358 15.9368 8.94911C16.083 8.69465 16.2939 8.48335 16.5481 8.33661L16.673 8.26166C17.0548 8.04051 17.3332 7.67691 17.4472 7.25066C17.5612 6.82441 17.5014 6.37035 17.2809 5.98816L17.0977 5.6717C16.8766 5.2899 16.513 5.01145 16.0867 4.89747C15.6605 4.78349 15.2064 4.8433 14.8242 5.06377L14.6993 5.13039C14.4461 5.27658 14.1589 5.35354 13.8665 5.35354C13.5741 5.35354 13.2869 5.27658 13.0337 5.13039L12.6756 4.9222C12.4227 4.77616 12.2126 4.56617 12.0664 4.3133C11.9202 4.06043 11.8431 3.77356 11.8428 3.48148V3.33158C11.8428 2.88985 11.6674 2.4662 11.355 2.15385C11.0427 1.84149 10.619 1.66602 10.1773 1.66602Z" stroke="white" stroke-width="1.66557" stroke-linecap="round" stroke-linejoin="round"/>
<path d="M9.99444 12.4918C11.3742 12.4918 12.4928 11.3733 12.4928 9.99347C12.4928 8.61367 11.3742 7.49512 9.99444 7.49512C8.61464 7.49512 7.49609 8.61367 7.49609 9.99347C7.49609 11.3733 8.61464 12.4918 9.99444 12.4918Z" stroke="white" stroke-width="1.66557" stroke-linecap="round" stroke-linejoin="round"/>
</svg>
