<svg width="20" height="17" viewBox="0 0 20 17" fill="none" xmlns="http://www.w3.org/2000/svg">
<path d="M18.7901 6.71484C18.7842 6.74414 18.7754 6.77344 18.7637 6.80273C18.7579 6.82617 18.752 6.84961 18.7461 6.87305C18.4766 7.71094 18.0547 8.46094 17.4805 9.12305C17.6914 9.52148 17.7647 9.94043 17.7002 10.3799C17.6416 10.8252 17.4571 11.209 17.1465 11.5312C16.9121 11.7949 16.625 11.9766 16.2852 12.0762C16.2911 12.082 16.294 12.0908 16.294 12.1025C16.294 12.1084 16.294 12.1172 16.294 12.1289C16.3233 12.4336 16.2823 12.7324 16.1709 13.0254C16.0538 13.3184 15.878 13.5674 15.6436 13.7725C15.2041 14.1592 14.6914 14.3496 14.1055 14.3438C13.9414 14.8066 13.6455 15.1582 13.2178 15.3984C12.7315 15.6973 12.21 15.7881 11.6534 15.6709C11.6475 15.6826 11.6416 15.6914 11.6358 15.6973C11.6299 15.709 11.6241 15.7207 11.6182 15.7324C11.4776 15.9844 11.2901 16.1924 11.0557 16.3564C10.8213 16.5264 10.5606 16.6377 10.2735 16.6904C9.7227 16.7959 9.20414 16.708 8.71781 16.4268C8.39555 16.6084 8.04984 16.7021 7.6807 16.708C7.16508 16.7021 6.72563 16.5176 6.36234 16.1543C6.06938 15.8848 5.86723 15.5566 5.7559 15.1699C5.55082 15.1465 5.35453 15.0908 5.16703 15.0029C4.93266 14.8916 4.72758 14.7422 4.5518 14.5547C4.31156 14.3086 4.14164 14.0244 4.04203 13.7021C3.56156 13.626 3.13383 13.4238 2.75883 13.0957C2.55375 12.9199 2.39848 12.7031 2.29301 12.4453C2.18754 12.1934 2.14359 11.9326 2.16117 11.6631C1.65727 11.5283 1.25883 11.25 0.965859 10.8281C0.889688 10.7227 0.825234 10.6113 0.7725 10.4941C0.766641 10.4766 0.760781 10.459 0.754922 10.4414C0.749063 10.418 0.743203 10.3975 0.737344 10.3799C0.708047 10.3037 0.68168 10.2275 0.658242 10.1514C0.652383 10.1221 0.646523 10.0957 0.640664 10.0723C0.640664 10.0488 0.640664 10.0254 0.640664 10.002C0.628945 9.93164 0.620156 9.8584 0.614297 9.78223C0.614297 9.75879 0.614297 9.73535 0.614297 9.71191C0.614297 9.68262 0.614297 9.65332 0.614297 9.62402C0.620156 9.53613 0.626016 9.46875 0.631875 9.42188C0.637734 9.38672 0.646523 9.33398 0.658242 9.26367C0.68168 9.17578 0.699258 9.1084 0.710977 9.06152C0.722695 9.02637 0.740273 8.97656 0.763711 8.91211C0.793008 8.8418 0.822305 8.78027 0.851602 8.72754C0.857461 8.71582 0.86332 8.7041 0.86918 8.69238C0.875039 8.68066 0.880898 8.66895 0.886758 8.65723C0.294961 7.74316 0.0078516 6.74121 0.0254297 5.65137C0.0371485 4.56738 0.344766 3.57422 0.948281 2.67188L0.965859 2.64551L0.992227 2.61035C1.44926 1.94824 2.02055 1.40918 2.70609 0.993164C3.95414 0.331055 5.2725 0.120117 6.66117 0.360352H6.67875L9.51762 0.817383C10.8301 0.530273 12.1573 0.348633 13.4991 0.272461H13.5782C13.6075 0.272461 13.6397 0.272461 13.6748 0.272461C13.71 0.266602 13.7452 0.263672 13.7803 0.263672H13.8067C14.5977 0.257812 15.3448 0.430664 16.0479 0.782227C16.7569 1.13379 17.3457 1.62598 17.8145 2.25879C18.3243 2.82715 18.6729 3.4834 18.8604 4.22754C19.042 4.96582 19.042 5.70703 18.8604 6.45117C18.8604 6.45703 18.8575 6.46582 18.8516 6.47754C18.8516 6.4834 18.8516 6.48926 18.8516 6.49512C18.8457 6.53027 18.837 6.56836 18.8252 6.60938C18.8135 6.64453 18.8018 6.67969 18.7901 6.71484ZM17.7002 5.64258L17.709 5.61621C17.709 5.56934 17.709 5.52539 17.709 5.48438C17.7149 5.4375 17.7178 5.39062 17.7178 5.34375C17.7178 5.31445 17.7149 5.28516 17.709 5.25586C17.709 5.22656 17.709 5.19727 17.709 5.16797C17.709 5.12109 17.7061 5.06836 17.7002 5.00977C17.6885 4.89844 17.6739 4.79297 17.6563 4.69336L17.6475 4.66699C17.5127 4.0752 17.2432 3.55078 16.8389 3.09375C16.3877 2.53125 15.834 2.09766 15.1778 1.79297C14.7383 1.61133 14.2784 1.52637 13.7979 1.53809C13.7686 1.53809 13.7364 1.53809 13.7012 1.53809C13.6661 1.53809 13.6309 1.53809 13.5957 1.53809H13.5166C11.4424 1.65527 9.4268 2.05664 7.46977 2.74219C7.25883 2.80664 7.0977 2.93555 6.98637 3.12891C6.93363 3.30469 6.94535 3.47461 7.02152 3.63867C7.08012 3.77344 7.19145 3.89941 7.35551 4.0166C7.51957 4.13379 7.68363 4.16016 7.8477 4.0957C8.27543 3.9375 8.70609 3.78809 9.13969 3.64746C9.57328 3.50098 9.89262 3.39551 10.0977 3.33105C10.209 3.2959 10.3233 3.28125 10.4405 3.28711C10.8389 3.28711 11.1788 3.4248 11.46 3.7002C11.5186 3.75293 11.7207 3.93457 12.0664 4.24512C12.418 4.5498 12.8487 4.92773 13.3584 5.37891C13.8741 5.83008 14.4131 6.30469 14.9756 6.80273C15.544 7.29492 16.0772 7.75781 16.5752 8.19141C16.962 7.72266 17.2608 7.2041 17.4717 6.63574L17.4981 6.57422C17.6036 6.27539 17.6709 5.96484 17.7002 5.64258ZM1.8975 9.86133C1.91508 9.94336 1.9473 10.0195 1.99418 10.0898C2.06449 10.2012 2.15531 10.2861 2.26664 10.3447C2.38383 10.4092 2.50688 10.4414 2.63578 10.4414L4.50785 8.61328C4.53129 8.54297 4.53715 8.4668 4.52543 8.38477C4.51371 8.30273 4.48734 8.22949 4.44633 8.16504C4.38188 8.08887 4.3057 8.02441 4.21781 7.97168C4.12992 7.91895 4.03617 7.88672 3.93656 7.875C3.83695 7.86328 3.74027 7.87207 3.64652 7.90137C3.54691 7.9248 3.45609 7.96875 3.37406 8.0332L2.18754 9.03516L2.17875 9.04395C2.12602 9.09668 2.08207 9.15234 2.04691 9.21094C2.01762 9.24609 1.99418 9.28125 1.9766 9.31641C1.95316 9.36914 1.93266 9.4248 1.91508 9.4834C1.90922 9.51855 1.90043 9.55371 1.88871 9.58887C1.88285 9.65332 1.88285 9.71484 1.88871 9.77344C1.88871 9.81445 1.89164 9.84375 1.8975 9.86133ZM3.48832 11.373C3.42973 11.4961 3.40922 11.625 3.4268 11.7598C3.44438 11.8945 3.49418 12.0146 3.57621 12.1201C3.67582 12.2256 3.79301 12.3076 3.92777 12.3662C4.0684 12.4189 4.21195 12.4424 4.35844 12.4365L6.43266 10.415C6.43266 10.4033 6.43559 10.3857 6.44145 10.3623C6.51762 10.2334 6.54984 10.0928 6.53813 9.94043C6.50883 9.79395 6.43852 9.6709 6.32719 9.57129C6.21 9.44238 6.06938 9.35449 5.90531 9.30762C5.77641 9.29004 5.65043 9.31055 5.52738 9.36914L5.53617 9.37793L3.48832 11.373ZM5.25492 13.333C5.29594 13.4678 5.36625 13.582 5.46586 13.6758C5.55375 13.7695 5.65922 13.8369 5.78227 13.8779C5.89945 13.9189 6.0225 13.9277 6.15141 13.9043L8.0059 12.1025C8.01762 12.0322 8.02055 11.959 8.01469 11.8828C7.97367 11.7129 7.88578 11.5664 7.75102 11.4434C7.65141 11.3379 7.53129 11.2734 7.39066 11.25L5.25492 13.333ZM7.24125 15.2402C7.3643 15.3633 7.51664 15.4277 7.69828 15.4336C7.94438 15.4219 8.15824 15.3311 8.33988 15.1611C8.3516 15.1553 8.36039 15.1494 8.36625 15.1436C8.37797 15.1436 8.38676 15.1406 8.39262 15.1348L8.86723 14.5811C9.04301 14.376 9.17191 14.1445 9.25395 13.8867C9.27738 13.8047 9.27738 13.7227 9.25395 13.6406C9.21293 13.5293 9.14848 13.4385 9.06059 13.3682C8.96098 13.2744 8.84965 13.207 8.7266 13.166L6.97758 14.8711C7.03617 15.0117 7.12406 15.1348 7.24125 15.2402ZM10.0713 15.4336C10.1768 15.4102 10.2676 15.3662 10.3438 15.3018C10.4258 15.2373 10.4903 15.1611 10.5371 15.0732C10.5664 15.0146 10.5928 14.9561 10.6163 14.8975L10.335 14.5986C10.2061 14.874 10.045 15.1318 9.8516 15.3721L9.84281 15.3896L9.79008 15.4424C9.88969 15.4482 9.98344 15.4453 10.0713 15.4336ZM14.1319 13.0693C14.3955 13.0752 14.627 12.9844 14.8262 12.7969C14.9082 12.7207 14.9668 12.6299 15.002 12.5244C15.0371 12.4189 15.0459 12.3135 15.0284 12.208C15.0225 12.0967 15.0049 11.9883 14.9756 11.8828C14.9639 11.8477 14.9522 11.8154 14.9405 11.7861V11.7686C14.9346 11.751 14.9288 11.7305 14.9229 11.707L13.8682 10.6436C13.7452 10.5205 13.6866 10.3711 13.6924 10.1953C13.6924 10.0195 13.7539 9.87012 13.877 9.74707C14.0059 9.62402 14.1582 9.5625 14.334 9.5625C14.5098 9.5625 14.6592 9.62695 14.7823 9.75586L15.8809 10.8721C16.0157 10.8428 16.127 10.7783 16.2149 10.6787C16.3496 10.5439 16.4288 10.3799 16.4522 10.1865C16.4756 9.99316 16.4346 9.81445 16.3291 9.65039L16.2061 9.54492C15.8955 9.26953 15.5147 8.93555 15.0635 8.54297C14.6123 8.15039 14.1407 7.74023 13.6485 7.3125C13.1563 6.87891 12.6905 6.46875 12.251 6.08203C11.8116 5.69531 11.4395 5.37012 11.1348 5.10645C10.836 4.83691 10.6543 4.67285 10.5899 4.61426C10.5723 4.59668 10.5518 4.58203 10.5284 4.57031C10.4991 4.55859 10.4698 4.55273 10.4405 4.55273C10.2647 4.60547 9.96586 4.70215 9.54398 4.84277C9.12797 4.9834 8.70902 5.12988 8.28715 5.28223C7.79496 5.43457 7.31742 5.39941 6.85453 5.17676C6.39164 4.95996 6.06059 4.61426 5.86137 4.13965C5.7559 3.89941 5.6973 3.65039 5.68559 3.39258C5.67973 3.13477 5.72367 2.88574 5.81742 2.64551C6.01664 2.19434 6.34184 1.86621 6.79301 1.66113L6.50297 1.61719C5.39555 1.41797 4.34086 1.57617 3.33891 2.0918C2.8057 2.41992 2.36332 2.84473 2.01176 3.36621L1.99418 3.39258C1.56059 4.03125 1.32621 4.74023 1.29105 5.51953C1.2559 6.29297 1.42582 7.02246 1.80082 7.70801L2.58305 7.04883L2.60063 7.03125C2.81742 6.86133 3.05473 6.74414 3.31254 6.67969C3.57035 6.60352 3.83402 6.58301 4.10355 6.61816C4.36723 6.65332 4.61625 6.73828 4.85063 6.87305C5.085 7.00781 5.28422 7.18066 5.44828 7.3916C5.59477 7.59082 5.69438 7.80762 5.74711 8.04199C5.88773 8.03613 6.02543 8.04785 6.1602 8.07715C6.57035 8.1709 6.92191 8.37012 7.21488 8.6748C7.54301 8.97949 7.73637 9.35156 7.79496 9.79102C7.80668 9.87305 7.80961 9.95801 7.80375 10.0459C8.12602 10.1396 8.40727 10.3066 8.6475 10.5469C8.97563 10.8574 9.1807 11.2324 9.26273 11.6719C9.28031 11.7891 9.2891 11.9062 9.2891 12.0234C9.51762 12.123 9.72563 12.2578 9.91313 12.4277C10.1768 12.6621 10.3614 12.9463 10.4668 13.2803C10.4844 13.3447 10.4991 13.4062 10.5108 13.4648C10.628 13.4297 10.7452 13.4268 10.8623 13.4561C10.9795 13.4854 11.0791 13.5439 11.1612 13.6318L11.9258 14.4404C12.1661 14.4814 12.3887 14.4346 12.5938 14.2998C12.7637 14.2061 12.875 14.0654 12.9278 13.8779C12.9512 13.8135 12.9659 13.749 12.9717 13.6846L12.0577 12.6738C11.9991 12.6094 11.9551 12.5391 11.9258 12.4629C11.8965 12.3809 11.8848 12.2988 11.8907 12.2168C11.8965 12.1289 11.917 12.0469 11.9522 11.9707C11.9873 11.8945 12.0371 11.8271 12.1016 11.7686C12.1602 11.71 12.2305 11.6689 12.3125 11.6455C12.3946 11.6162 12.4766 11.6045 12.5586 11.6104C12.6465 11.6162 12.7286 11.6367 12.8047 11.6719C12.8809 11.707 12.9454 11.7568 12.9981 11.8213L14.1319 13.0693Z" fill="#6A7282"/>
</svg>
