<svg width="20" height="20" viewBox="0 0 20 20" fill="none" xmlns="http://www.w3.org/2000/svg">
<path d="M9.59782 1.9116C9.63432 1.83786 9.69069 1.7758 9.76059 1.7324C9.83049 1.68901 9.91112 1.66602 9.99339 1.66602C10.0757 1.66602 10.1563 1.68901 10.2262 1.7324C10.2961 1.7758 10.3525 1.83786 10.389 1.9116L12.3127 5.80819C12.4394 6.06466 12.6265 6.28655 12.8579 6.45481C13.0892 6.62307 13.3579 6.73267 13.641 6.77422L17.9431 7.4038C18.0247 7.41561 18.1012 7.45 18.1642 7.50307C18.2272 7.55614 18.2741 7.62578 18.2996 7.70411C18.3251 7.78244 18.3281 7.86634 18.3084 7.94631C18.2887 8.02628 18.247 8.09914 18.188 8.15664L15.0767 11.1863C14.8715 11.3863 14.718 11.6331 14.6294 11.9055C14.5407 12.178 14.5196 12.4679 14.5679 12.7503L15.3024 17.0308C15.3168 17.1123 15.308 17.1961 15.277 17.2729C15.246 17.3496 15.1941 17.416 15.1271 17.4647C15.0602 17.5133 14.9809 17.5421 14.8984 17.5478C14.8158 17.5536 14.7333 17.536 14.6603 17.4971L10.8145 15.4751C10.5611 15.3421 10.2792 15.2726 9.99298 15.2726C9.70677 15.2726 9.42484 15.3421 9.17144 15.4751L5.32648 17.4971C5.25347 17.5358 5.17108 17.5532 5.08868 17.5473C5.00628 17.5415 4.92717 17.5126 4.86036 17.464C4.79355 17.4154 4.74172 17.3491 4.71076 17.2725C4.6798 17.1959 4.67096 17.1121 4.68523 17.0308L5.41892 12.7511C5.46738 12.4686 5.44638 12.1785 5.35774 11.9059C5.26909 11.6333 5.11546 11.3863 4.91008 11.1863L1.79881 8.15747C1.73934 8.10004 1.6972 8.02706 1.67719 7.94684C1.65718 7.86662 1.6601 7.7824 1.68561 7.70376C1.71113 7.62513 1.75822 7.55524 1.82152 7.50206C1.88482 7.44888 1.96179 7.41455 2.04364 7.40297L6.34497 6.77422C6.62833 6.733 6.89743 6.62353 7.12911 6.45525C7.36078 6.28697 7.5481 6.06491 7.67492 5.80819L9.59782 1.9116Z" stroke="#6BD3D1" stroke-width="1.66557" stroke-linecap="round" stroke-linejoin="round"/>
</svg>
