<svg width="20" height="20" viewBox="0 0 20 20" fill="none" xmlns="http://www.w3.org/2000/svg">
<path d="M12.4987 1.96558H4.9987C4.55667 1.96558 4.13275 2.14117 3.82019 2.45373C3.50763 2.76629 3.33203 3.19022 3.33203 3.63224V16.9656C3.33203 17.4076 3.50763 17.8315 3.82019 18.1441C4.13275 18.4566 4.55667 18.6322 4.9987 18.6322H14.9987C15.4407 18.6322 15.8646 18.4566 16.1772 18.1441C16.4898 17.8315 16.6654 17.4076 16.6654 16.9656V6.13224L12.4987 1.96558Z" stroke="#0B3C6D" stroke-width="1.66557" stroke-linecap="round" stroke-linejoin="round"/>
<path d="M11.668 1.96558V5.29891C11.668 5.74094 11.8436 6.16486 12.1561 6.47742C12.4687 6.78998 12.8926 6.96558 13.3346 6.96558H16.668" stroke="#0B3C6D" stroke-width="1.66557" stroke-linecap="round" stroke-linejoin="round"/>
<path d="M8.33464 7.79761H6.66797" stroke="#0B3C6D" stroke-width="1.66557" stroke-linecap="round" stroke-linejoin="round"/>
<path d="M13.3346 11.1316H6.66797" stroke="#0B3C6D" stroke-width="1.66557" stroke-linecap="round" stroke-linejoin="round"/>
<path d="M13.3346 14.4656H6.66797" stroke="#0B3C6D" stroke-width="1.66557" stroke-linecap="round" stroke-linejoin="round"/>
</svg>
