<svg width="16" height="16" viewBox="0 0 16 16" fill="none" xmlns="http://www.w3.org/2000/svg">
<g clip-path="url(#clip0_16388_2303)">
<path d="M8.55363 1.45325C8.37993 1.37401 8.19123 1.33301 8.0003 1.33301C7.80938 1.33301 7.62068 1.37401 7.44697 1.45325L1.73363 4.05325C1.61533 4.10541 1.51475 4.19084 1.44414 4.29915C1.37353 4.40746 1.33594 4.53396 1.33594 4.66325C1.33594 4.79254 1.37353 4.91904 1.44414 5.02734C1.51475 5.13565 1.61533 5.22108 1.73363 5.27325L7.45363 7.87991C7.62734 7.95915 7.81604 8.00015 8.00697 8.00015C8.19789 8.00015 8.38659 7.95915 8.5603 7.87991L14.2803 5.27991C14.3986 5.22775 14.4992 5.14231 14.5698 5.03401C14.6404 4.9257 14.678 4.7992 14.678 4.66991C14.678 4.54062 14.6404 4.41412 14.5698 4.30582C14.4992 4.19751 14.3986 4.11208 14.2803 4.05991L8.55363 1.45325Z" stroke="#0B3C6D" stroke-width="1.66667" stroke-linecap="round" stroke-linejoin="round"/>
<path d="M1.33594 8C1.33562 8.12751 1.37188 8.25244 1.44042 8.35997C1.50895 8.46749 1.60689 8.55311 1.72261 8.60667L7.45594 11.2133C7.62874 11.2916 7.81625 11.3321 8.00594 11.3321C8.19563 11.3321 8.38314 11.2916 8.55594 11.2133L14.2759 8.61333C14.3939 8.56029 14.494 8.47406 14.5638 8.36516C14.6337 8.25625 14.6703 8.12937 14.6693 8" stroke="#0B3C6D" stroke-width="1.66667" stroke-linecap="round" stroke-linejoin="round"/>
<path d="M1.33594 11.333C1.33562 11.4605 1.37188 11.5854 1.44042 11.693C1.50895 11.8005 1.60689 11.8861 1.72261 11.9397L7.45594 14.5463C7.62874 14.6246 7.81625 14.6651 8.00594 14.6651C8.19563 14.6651 8.38314 14.6246 8.55594 14.5463L14.2759 11.9463C14.3939 11.8933 14.494 11.8071 14.5638 11.6982C14.6337 11.5893 14.6703 11.4624 14.6693 11.333" stroke="#0B3C6D" stroke-width="1.66667" stroke-linecap="round" stroke-linejoin="round"/>
</g>
<defs>
<clipPath id="clip0_16388_2303">
<rect width="16" height="16" fill="white"/>
</clipPath>
</defs>
</svg>
