<svg width="16" height="16" viewBox="0 0 16 16" fill="none" xmlns="http://www.w3.org/2000/svg">
<path d="M10.0781 10.0017C10.0778 9.88338 10.1089 9.7671 10.1683 9.6648C10.2278 9.5625 10.3134 9.47785 10.4163 9.41956C10.5193 9.36126 10.6359 9.33141 10.7542 9.33307C10.8725 9.33474 10.9882 9.36785 11.0895 9.42902L14.4208 11.427C14.52 11.4861 14.6021 11.57 14.6591 11.6704C14.7162 11.7708 14.7461 11.8842 14.7461 11.9997C14.7461 12.1151 14.7162 12.2286 14.6591 12.329C14.6021 12.4294 14.52 12.5132 14.4208 12.5724L11.0895 14.5704C10.9881 14.6316 10.8724 14.6647 10.754 14.6663C10.6356 14.6679 10.519 14.638 10.416 14.5797C10.313 14.5213 10.2275 14.4365 10.1681 14.3341C10.1087 14.2317 10.0777 14.1154 10.0781 13.997V10.0017Z" stroke="#0B3C6D" stroke-width="1.33" stroke-linecap="round" stroke-linejoin="round"/>
<path d="M14.0781 8.11333V3.33333C14.0781 2.97971 13.9376 2.64057 13.6876 2.39052C13.4376 2.14048 13.0984 2 12.7448 2H3.41146C3.05784 2 2.7187 2.14048 2.46865 2.39052C2.2186 2.64057 2.07813 2.97971 2.07812 3.33333V12.6667C2.07813 13.0203 2.2186 13.3594 2.46865 13.6095C2.7187 13.8595 3.05784 14 3.41146 14H7.41146" stroke="#0B3C6D" stroke-width="1.33" stroke-linecap="round" stroke-linejoin="round"/>
<path d="M4.07812 14.0003L7.41146 10.667" stroke="#0B3C6D" stroke-width="1.33" stroke-linecap="round" stroke-linejoin="round"/>
<path d="M6.07943 7.33366C6.81581 7.33366 7.41276 6.73671 7.41276 6.00033C7.41276 5.26395 6.81581 4.66699 6.07943 4.66699C5.34305 4.66699 4.74609 5.26395 4.74609 6.00033C4.74609 6.73671 5.34305 7.33366 6.07943 7.33366Z" stroke="#0B3C6D" stroke-width="1.33" stroke-linecap="round" stroke-linejoin="round"/>
</svg>
